<?xml version="1.0" standalone="no"?>
<!DOCTYPE svg PUBLIC "-//W3C//DTD SVG 20010904//EN"
 "http://www.w3.org/TR/2001/REC-SVG-20010904/DTD/svg10.dtd">
<svg version="1.0" xmlns="http://www.w3.org/2000/svg"
 width="195.000000pt" height="58.000000pt" viewBox="0 0 195.000000 58.000000"
 preserveAspectRatio="xMidYMid meet">

<g transform="translate(0.000000,58.000000) scale(0.100000,-0.100000)"
fill="#000000" stroke="none">
<path d="M0 290 l0 -290 975 0 975 0 0 290 0 290 -975 0 -975 0 0 -290z m325
129 c4 -5 4 -21 1 -35 -5 -20 -13 -24 -41 -24 l-35 0 0 -95 0 -95 -35 0 -35 0
0 94 0 95 -37 3 c-35 3 -38 6 -41 36 l-3 32 110 0 c66 0 112 -4 116 -11z m206
-12 c101 -68 67 -221 -52 -234 -56 -6 -102 15 -129 60 -72 117 68 251 181 174z
m254 7 c72 -34 86 -147 26 -208 -29 -29 -37 -31 -111 -34 l-80 -4 0 131 0 131
66 0 c39 0 79 -6 99 -16z m282 -6 c56 -39 72 -112 39 -176 -45 -88 -193 -79
-232 13 -19 45 -18 73 4 113 37 70 125 93 189 50z m247 0 c3 -13 7 -54 11 -93
3 -38 8 -87 12 -108 l6 -37 -37 0 c-32 0 -36 3 -36 25 0 22 -4 25 -33 25 -26
0 -36 -6 -45 -25 -9 -20 -19 -25 -48 -25 l-36 0 52 98 c85 158 88 162 121 162
22 0 30 -5 33 -22z m136 -60 c0 -9 3 -9 12 0 17 17 83 15 97 -2 35 -42 18
-126 -31 -160 -25 -18 -74 -21 -83 -6 -11 18 -25 11 -25 -12 0 -53 -11 -68
-47 -68 -32 0 -35 2 -29 23 3 12 15 70 27 130 22 106 22 107 50 107 16 0 29
-5 29 -12z m230 0 c0 -9 3 -9 12 0 17 17 74 15 92 -4 21 -20 21 -88 -1 -124
-26 -44 -93 -66 -120 -39 -9 9 -13 2 -19 -27 -9 -51 -19 -62 -50 -56 -30 6
-30 12 7 171 20 89 21 91 50 91 16 0 29 -5 29 -12z"/>
<path d="M420 345 c-21 -25 -16 -76 9 -96 28 -22 60 -13 81 25 13 23 13 29 0
54 -19 32 -69 42 -90 17z"/>
<path d="M690 300 c0 -59 0 -60 28 -60 37 0 52 17 52 60 0 43 -15 60 -52 60
-28 0 -28 -1 -28 -60z"/>
<path d="M950 341 c-15 -29 -12 -77 5 -91 22 -18 66 -15 82 6 18 24 16 69 -3
88 -22 23 -71 20 -84 -3z"/>
<path d="M1242 305 c-15 -33 -15 -35 3 -35 10 0 15 10 15 30 0 37 -3 37 -18 5z"/>
<path d="M1456 291 c-23 -25 -17 -55 12 -59 26 -4 45 33 30 61 -11 22 -21 22
-42 -2z"/>
<path d="M1687 298 c-21 -11 -22 -57 -2 -64 21 -8 45 14 45 41 0 27 -19 37
-43 23z"/>
</g>
</svg>
